<mxfile host="Electron" agent="Mozilla/5.0 (Windows NT 10.0; Win64; x64) AppleWebKit/537.36 (KHTML, like Gecko) draw.io/24.7.17 Chrome/128.0.6613.36 Electron/32.0.1 Safari/537.36" version="24.7.17">
  <diagram id="C5RBs43oDa-KdzZeNtuy" name="Page-1">
    <mxGraphModel dx="1434" dy="2005" grid="1" gridSize="10" guides="1" tooltips="1" connect="1" arrows="1" fold="1" page="1" pageScale="1" pageWidth="827" pageHeight="1169" math="0" shadow="0">
      <root>
        <mxCell id="WIyWlLk6GJQsqaUBKTNV-0" />
        <mxCell id="WIyWlLk6GJQsqaUBKTNV-1" parent="WIyWlLk6GJQsqaUBKTNV-0" />
        <mxCell id="WIyWlLk6GJQsqaUBKTNV-6" value="j&amp;lt;=0" style="rhombus;whiteSpace=wrap;html=1;shadow=0;fontFamily=Helvetica;fontSize=12;align=center;strokeWidth=1;spacing=6;spacingTop=-4;" parent="WIyWlLk6GJQsqaUBKTNV-1" vertex="1">
          <mxGeometry x="60" y="300" width="100" height="80" as="geometry" />
        </mxCell>
        <mxCell id="WIyWlLk6GJQsqaUBKTNV-7" value="j=1" style="rounded=1;whiteSpace=wrap;html=1;fontSize=12;glass=0;strokeWidth=1;shadow=0;" parent="WIyWlLk6GJQsqaUBKTNV-1" vertex="1">
          <mxGeometry x="200" y="240" width="120" height="40" as="geometry" />
        </mxCell>
        <mxCell id="WIyWlLk6GJQsqaUBKTNV-8" value="No" style="rounded=0;html=1;jettySize=auto;orthogonalLoop=1;fontSize=11;endArrow=block;endFill=0;endSize=8;strokeWidth=1;shadow=0;labelBackgroundColor=none;edgeStyle=orthogonalEdgeStyle;" parent="WIyWlLk6GJQsqaUBKTNV-1" source="WIyWlLk6GJQsqaUBKTNV-10" target="WIyWlLk6GJQsqaUBKTNV-11" edge="1">
          <mxGeometry x="0.3333" y="20" relative="1" as="geometry">
            <mxPoint as="offset" />
          </mxGeometry>
        </mxCell>
        <mxCell id="WIyWlLk6GJQsqaUBKTNV-10" value="Bulb&lt;br&gt;burned out?" style="rhombus;whiteSpace=wrap;html=1;shadow=0;fontFamily=Helvetica;fontSize=12;align=center;strokeWidth=1;spacing=6;spacingTop=-4;" parent="WIyWlLk6GJQsqaUBKTNV-1" vertex="1">
          <mxGeometry x="70" y="600" width="100" height="80" as="geometry" />
        </mxCell>
        <mxCell id="WIyWlLk6GJQsqaUBKTNV-11" value="Repair Lamp" style="rounded=1;whiteSpace=wrap;html=1;fontSize=12;glass=0;strokeWidth=1;shadow=0;" parent="WIyWlLk6GJQsqaUBKTNV-1" vertex="1">
          <mxGeometry x="60" y="740" width="120" height="40" as="geometry" />
        </mxCell>
        <mxCell id="WIyWlLk6GJQsqaUBKTNV-12" value="i++" style="rounded=1;whiteSpace=wrap;html=1;fontSize=12;glass=0;strokeWidth=1;shadow=0;" parent="WIyWlLk6GJQsqaUBKTNV-1" vertex="1">
          <mxGeometry x="310" y="510" width="120" height="40" as="geometry" />
        </mxCell>
        <mxCell id="wtyQRGefkYx0He90W-xb-2" style="edgeStyle=orthogonalEdgeStyle;rounded=0;orthogonalLoop=1;jettySize=auto;html=1;entryX=0.5;entryY=0;entryDx=0;entryDy=0;" edge="1" parent="WIyWlLk6GJQsqaUBKTNV-1" source="FVY9-VPbw2DGXvEUxhgQ-0" target="FVY9-VPbw2DGXvEUxhgQ-1">
          <mxGeometry relative="1" as="geometry" />
        </mxCell>
        <mxCell id="FVY9-VPbw2DGXvEUxhgQ-0" value="Start" style="strokeWidth=2;html=1;shape=mxgraph.flowchart.start_1;whiteSpace=wrap;" parent="WIyWlLk6GJQsqaUBKTNV-1" vertex="1">
          <mxGeometry x="374" y="-1150" width="100" height="70" as="geometry" />
        </mxCell>
        <mxCell id="FVY9-VPbw2DGXvEUxhgQ-1" value="x, y" style="shape=parallelogram;html=1;strokeWidth=2;perimeter=parallelogramPerimeter;whiteSpace=wrap;rounded=1;arcSize=12;size=0.23;" parent="WIyWlLk6GJQsqaUBKTNV-1" vertex="1">
          <mxGeometry x="319" y="-1050" width="210" height="60" as="geometry" />
        </mxCell>
        <mxCell id="FVY9-VPbw2DGXvEUxhgQ-2" value="i&amp;lt;=m" style="strokeWidth=2;html=1;shape=mxgraph.flowchart.decision;whiteSpace=wrap;" parent="WIyWlLk6GJQsqaUBKTNV-1" vertex="1">
          <mxGeometry x="534" y="280" width="100" height="100" as="geometry" />
        </mxCell>
        <mxCell id="wtyQRGefkYx0He90W-xb-4" style="edgeStyle=orthogonalEdgeStyle;rounded=0;orthogonalLoop=1;jettySize=auto;html=1;entryX=0.5;entryY=0;entryDx=0;entryDy=0;" edge="1" parent="WIyWlLk6GJQsqaUBKTNV-1" source="wtyQRGefkYx0He90W-xb-1" target="wtyQRGefkYx0He90W-xb-6">
          <mxGeometry relative="1" as="geometry">
            <mxPoint x="415" y="-700" as="targetPoint" />
          </mxGeometry>
        </mxCell>
        <mxCell id="wtyQRGefkYx0He90W-xb-1" value="maska = 1,&lt;br&gt;&amp;nbsp;licznik_przesuwania = 31,&lt;br&gt;przepełnienie = FAŁSZ,&lt;div&gt;wynik = 0&lt;/div&gt;" style="rounded=1;whiteSpace=wrap;html=1;fontSize=12;glass=0;strokeWidth=1;shadow=0;" vertex="1" parent="WIyWlLk6GJQsqaUBKTNV-1">
          <mxGeometry x="336" y="-950" width="155" height="80" as="geometry" />
        </mxCell>
        <mxCell id="wtyQRGefkYx0He90W-xb-3" style="edgeStyle=orthogonalEdgeStyle;rounded=0;orthogonalLoop=1;jettySize=auto;html=1;entryX=0.587;entryY=-0.043;entryDx=0;entryDy=0;entryPerimeter=0;" edge="1" parent="WIyWlLk6GJQsqaUBKTNV-1" source="FVY9-VPbw2DGXvEUxhgQ-1" target="wtyQRGefkYx0He90W-xb-1">
          <mxGeometry relative="1" as="geometry" />
        </mxCell>
        <mxCell id="wtyQRGefkYx0He90W-xb-16" style="edgeStyle=orthogonalEdgeStyle;rounded=0;orthogonalLoop=1;jettySize=auto;html=1;entryX=0.5;entryY=0;entryDx=0;entryDy=0;" edge="1" parent="WIyWlLk6GJQsqaUBKTNV-1" source="wtyQRGefkYx0He90W-xb-6" target="wtyQRGefkYx0He90W-xb-11">
          <mxGeometry relative="1" as="geometry" />
        </mxCell>
        <mxCell id="wtyQRGefkYx0He90W-xb-6" value="&lt;div&gt;&lt;br&gt;&lt;/div&gt;&lt;div&gt;w = y &amp;amp; maska&lt;br&gt;&lt;/div&gt;przesunięcie w o licznik_przesuwania w lewo;&lt;div&gt;wypełnienie znaków w bitem najbardziej po lewej (przesunięcie arytmetyczne)&lt;br&gt;&lt;div&gt;&lt;br&gt;&lt;/div&gt;&lt;/div&gt;" style="rounded=1;whiteSpace=wrap;html=1;absoluteArcSize=1;arcSize=14;strokeWidth=2;" vertex="1" parent="WIyWlLk6GJQsqaUBKTNV-1">
          <mxGeometry x="274" y="-840" width="280" height="64" as="geometry" />
        </mxCell>
        <mxCell id="wtyQRGefkYx0He90W-xb-11" value="w = w &amp;amp; x&lt;div&gt;schodki = 31 - licznik_przesuwania&lt;br&gt;licznik_przesuwania--&lt;/div&gt;" style="whiteSpace=wrap;html=1;rounded=1;arcSize=14;strokeWidth=2;" vertex="1" parent="WIyWlLk6GJQsqaUBKTNV-1">
          <mxGeometry x="311" y="-750" width="206" height="60" as="geometry" />
        </mxCell>
        <mxCell id="wtyQRGefkYx0He90W-xb-18" style="edgeStyle=orthogonalEdgeStyle;rounded=0;orthogonalLoop=1;jettySize=auto;html=1;entryX=0.5;entryY=0;entryDx=0;entryDy=0;" edge="1" parent="WIyWlLk6GJQsqaUBKTNV-1" source="wtyQRGefkYx0He90W-xb-17" target="wtyQRGefkYx0He90W-xb-32">
          <mxGeometry relative="1" as="geometry">
            <mxPoint x="190" y="-550" as="targetPoint" />
          </mxGeometry>
        </mxCell>
        <mxCell id="wtyQRGefkYx0He90W-xb-20" style="edgeStyle=orthogonalEdgeStyle;rounded=0;orthogonalLoop=1;jettySize=auto;html=1;entryX=0.5;entryY=0;entryDx=0;entryDy=0;" edge="1" parent="WIyWlLk6GJQsqaUBKTNV-1" source="wtyQRGefkYx0He90W-xb-17" target="wtyQRGefkYx0He90W-xb-23">
          <mxGeometry relative="1" as="geometry">
            <mxPoint x="550" y="-530" as="targetPoint" />
          </mxGeometry>
        </mxCell>
        <mxCell id="wtyQRGefkYx0He90W-xb-17" value="schodki == 0" style="strokeWidth=2;html=1;shape=mxgraph.flowchart.decision;whiteSpace=wrap;" vertex="1" parent="WIyWlLk6GJQsqaUBKTNV-1">
          <mxGeometry x="364" y="-670" width="100" height="100" as="geometry" />
        </mxCell>
        <mxCell id="wtyQRGefkYx0He90W-xb-19" style="edgeStyle=orthogonalEdgeStyle;rounded=0;orthogonalLoop=1;jettySize=auto;html=1;exitX=0.5;exitY=1;exitDx=0;exitDy=0;entryX=0.5;entryY=0;entryDx=0;entryDy=0;entryPerimeter=0;" edge="1" parent="WIyWlLk6GJQsqaUBKTNV-1" source="wtyQRGefkYx0He90W-xb-11" target="wtyQRGefkYx0He90W-xb-17">
          <mxGeometry relative="1" as="geometry" />
        </mxCell>
        <mxCell id="wtyQRGefkYx0He90W-xb-21" value="Nie" style="text;html=1;align=center;verticalAlign=middle;resizable=0;points=[];autosize=1;strokeColor=none;fillColor=none;" vertex="1" parent="WIyWlLk6GJQsqaUBKTNV-1">
          <mxGeometry x="477" y="-652" width="40" height="30" as="geometry" />
        </mxCell>
        <mxCell id="wtyQRGefkYx0He90W-xb-22" value="Tak" style="text;html=1;align=center;verticalAlign=middle;resizable=0;points=[];autosize=1;strokeColor=none;fillColor=none;" vertex="1" parent="WIyWlLk6GJQsqaUBKTNV-1">
          <mxGeometry x="320" y="-652" width="40" height="30" as="geometry" />
        </mxCell>
        <mxCell id="wtyQRGefkYx0He90W-xb-24" style="edgeStyle=orthogonalEdgeStyle;rounded=0;orthogonalLoop=1;jettySize=auto;html=1;entryX=0.5;entryY=0;entryDx=0;entryDy=0;entryPerimeter=0;" edge="1" parent="WIyWlLk6GJQsqaUBKTNV-1" source="wtyQRGefkYx0He90W-xb-23" target="wtyQRGefkYx0He90W-xb-25">
          <mxGeometry relative="1" as="geometry">
            <mxPoint x="550" y="-460" as="targetPoint" />
          </mxGeometry>
        </mxCell>
        <mxCell id="wtyQRGefkYx0He90W-xb-23" value="schodki--" style="rounded=1;whiteSpace=wrap;html=1;absoluteArcSize=1;arcSize=14;strokeWidth=2;" vertex="1" parent="WIyWlLk6GJQsqaUBKTNV-1">
          <mxGeometry x="500" y="-600" width="100" height="40" as="geometry" />
        </mxCell>
        <mxCell id="wtyQRGefkYx0He90W-xb-26" style="edgeStyle=orthogonalEdgeStyle;rounded=0;orthogonalLoop=1;jettySize=auto;html=1;entryX=0.5;entryY=0;entryDx=0;entryDy=0;" edge="1" parent="WIyWlLk6GJQsqaUBKTNV-1" source="wtyQRGefkYx0He90W-xb-25" target="wtyQRGefkYx0He90W-xb-27">
          <mxGeometry relative="1" as="geometry">
            <mxPoint x="430" y="-380" as="targetPoint" />
          </mxGeometry>
        </mxCell>
        <mxCell id="wtyQRGefkYx0He90W-xb-29" style="edgeStyle=orthogonalEdgeStyle;rounded=0;orthogonalLoop=1;jettySize=auto;html=1;entryX=0.75;entryY=0;entryDx=0;entryDy=0;" edge="1" parent="WIyWlLk6GJQsqaUBKTNV-1" source="wtyQRGefkYx0He90W-xb-25" target="wtyQRGefkYx0He90W-xb-30">
          <mxGeometry relative="1" as="geometry">
            <mxPoint x="550" y="-290" as="targetPoint" />
            <Array as="points">
              <mxPoint x="690" y="-455" />
              <mxPoint x="690" y="-400" />
              <mxPoint x="535" y="-400" />
            </Array>
          </mxGeometry>
        </mxCell>
        <mxCell id="wtyQRGefkYx0He90W-xb-25" value="w &amp;lt; 0&lt;br&gt;(po przesunięciu wyjdzie)" style="strokeWidth=2;html=1;shape=mxgraph.flowchart.decision;whiteSpace=wrap;" vertex="1" parent="WIyWlLk6GJQsqaUBKTNV-1">
          <mxGeometry x="490" y="-500" width="120" height="90" as="geometry" />
        </mxCell>
        <mxCell id="wtyQRGefkYx0He90W-xb-28" style="edgeStyle=orthogonalEdgeStyle;rounded=0;orthogonalLoop=1;jettySize=auto;html=1;entryX=0.42;entryY=-0.05;entryDx=0;entryDy=0;entryPerimeter=0;" edge="1" parent="WIyWlLk6GJQsqaUBKTNV-1" source="wtyQRGefkYx0He90W-xb-27" target="wtyQRGefkYx0He90W-xb-30">
          <mxGeometry relative="1" as="geometry">
            <mxPoint x="520" y="-290" as="targetPoint" />
          </mxGeometry>
        </mxCell>
        <mxCell id="wtyQRGefkYx0He90W-xb-27" value="przepełnienie = PRAWDA" style="rounded=1;whiteSpace=wrap;html=1;absoluteArcSize=1;arcSize=14;strokeWidth=2;" vertex="1" parent="WIyWlLk6GJQsqaUBKTNV-1">
          <mxGeometry x="377" y="-400" width="100" height="30" as="geometry" />
        </mxCell>
        <mxCell id="wtyQRGefkYx0He90W-xb-31" style="edgeStyle=orthogonalEdgeStyle;rounded=0;orthogonalLoop=1;jettySize=auto;html=1;" edge="1" parent="WIyWlLk6GJQsqaUBKTNV-1" source="wtyQRGefkYx0He90W-xb-30">
          <mxGeometry relative="1" as="geometry">
            <mxPoint x="410" y="-680" as="targetPoint" />
            <Array as="points">
              <mxPoint x="91" y="-320" />
            </Array>
          </mxGeometry>
        </mxCell>
        <mxCell id="wtyQRGefkYx0He90W-xb-30" value="schodek &amp;lt;&amp;lt;" style="rounded=1;whiteSpace=wrap;html=1;absoluteArcSize=1;arcSize=14;strokeWidth=2;" vertex="1" parent="WIyWlLk6GJQsqaUBKTNV-1">
          <mxGeometry x="430" y="-340" width="140" height="40" as="geometry" />
        </mxCell>
        <mxCell id="wtyQRGefkYx0He90W-xb-34" value="" style="edgeStyle=orthogonalEdgeStyle;rounded=0;orthogonalLoop=1;jettySize=auto;html=1;" edge="1" parent="WIyWlLk6GJQsqaUBKTNV-1" source="wtyQRGefkYx0He90W-xb-32" target="wtyQRGefkYx0He90W-xb-33">
          <mxGeometry relative="1" as="geometry" />
        </mxCell>
        <mxCell id="wtyQRGefkYx0He90W-xb-32" value="z = wynik + w" style="rounded=1;whiteSpace=wrap;html=1;absoluteArcSize=1;arcSize=14;strokeWidth=2;" vertex="1" parent="WIyWlLk6GJQsqaUBKTNV-1">
          <mxGeometry x="250" y="-604" width="100" height="40" as="geometry" />
        </mxCell>
        <mxCell id="wtyQRGefkYx0He90W-xb-35" style="edgeStyle=orthogonalEdgeStyle;rounded=0;orthogonalLoop=1;jettySize=auto;html=1;entryX=0.5;entryY=0;entryDx=0;entryDy=0;" edge="1" parent="WIyWlLk6GJQsqaUBKTNV-1" source="wtyQRGefkYx0He90W-xb-33" target="wtyQRGefkYx0He90W-xb-36">
          <mxGeometry relative="1" as="geometry">
            <mxPoint x="40" y="-270" as="targetPoint" />
            <Array as="points">
              <mxPoint x="41" y="-455" />
              <mxPoint x="41" y="-240" />
            </Array>
          </mxGeometry>
        </mxCell>
        <mxCell id="wtyQRGefkYx0He90W-xb-37" style="edgeStyle=orthogonalEdgeStyle;rounded=0;orthogonalLoop=1;jettySize=auto;html=1;entryX=0.82;entryY=-0.175;entryDx=0;entryDy=0;entryPerimeter=0;" edge="1" parent="WIyWlLk6GJQsqaUBKTNV-1" source="wtyQRGefkYx0He90W-xb-33" target="wtyQRGefkYx0He90W-xb-39">
          <mxGeometry relative="1" as="geometry">
            <mxPoint x="370" y="-140" as="targetPoint" />
            <Array as="points">
              <mxPoint x="350" y="-247" />
              <mxPoint x="372" y="-247" />
            </Array>
          </mxGeometry>
        </mxCell>
        <mxCell id="wtyQRGefkYx0He90W-xb-33" value="(sgn(z)!=sgn(w))&lt;div&gt;&lt;br&gt;&lt;/div&gt;" style="rhombus;whiteSpace=wrap;html=1;rounded=1;arcSize=14;strokeWidth=2;" vertex="1" parent="WIyWlLk6GJQsqaUBKTNV-1">
          <mxGeometry x="146" y="-492.5" width="190" height="75" as="geometry" />
        </mxCell>
        <mxCell id="wtyQRGefkYx0He90W-xb-38" style="edgeStyle=orthogonalEdgeStyle;rounded=0;orthogonalLoop=1;jettySize=auto;html=1;entryX=0.25;entryY=0;entryDx=0;entryDy=0;" edge="1" parent="WIyWlLk6GJQsqaUBKTNV-1" source="wtyQRGefkYx0He90W-xb-36" target="wtyQRGefkYx0He90W-xb-39">
          <mxGeometry relative="1" as="geometry">
            <mxPoint x="310" y="-160" as="targetPoint" />
          </mxGeometry>
        </mxCell>
        <mxCell id="wtyQRGefkYx0He90W-xb-36" value="prezpełnienie = PRAWDA" style="rounded=1;whiteSpace=wrap;html=1;absoluteArcSize=1;arcSize=14;strokeWidth=2;" vertex="1" parent="WIyWlLk6GJQsqaUBKTNV-1">
          <mxGeometry x="10" y="-220" width="100" height="50" as="geometry" />
        </mxCell>
        <mxCell id="wtyQRGefkYx0He90W-xb-43" value="" style="edgeStyle=orthogonalEdgeStyle;rounded=0;orthogonalLoop=1;jettySize=auto;html=1;" edge="1" parent="WIyWlLk6GJQsqaUBKTNV-1" source="wtyQRGefkYx0He90W-xb-39" target="wtyQRGefkYx0He90W-xb-42">
          <mxGeometry relative="1" as="geometry" />
        </mxCell>
        <mxCell id="wtyQRGefkYx0He90W-xb-39" value="wynik = z&lt;div&gt;maska &amp;lt;&amp;lt;&lt;/div&gt;" style="rounded=1;whiteSpace=wrap;html=1;absoluteArcSize=1;arcSize=14;strokeWidth=2;" vertex="1" parent="WIyWlLk6GJQsqaUBKTNV-1">
          <mxGeometry x="290" y="-180" width="100" height="40" as="geometry" />
        </mxCell>
        <mxCell id="wtyQRGefkYx0He90W-xb-44" style="edgeStyle=orthogonalEdgeStyle;rounded=0;orthogonalLoop=1;jettySize=auto;html=1;" edge="1" parent="WIyWlLk6GJQsqaUBKTNV-1" source="wtyQRGefkYx0He90W-xb-42">
          <mxGeometry relative="1" as="geometry">
            <mxPoint x="420" y="-850" as="targetPoint" />
            <Array as="points">
              <mxPoint x="771" y="-160" />
            </Array>
          </mxGeometry>
        </mxCell>
        <mxCell id="wtyQRGefkYx0He90W-xb-46" style="edgeStyle=orthogonalEdgeStyle;rounded=0;orthogonalLoop=1;jettySize=auto;html=1;entryX=0.57;entryY=0.017;entryDx=0;entryDy=0;entryPerimeter=0;" edge="1" parent="WIyWlLk6GJQsqaUBKTNV-1" source="wtyQRGefkYx0He90W-xb-42" target="wtyQRGefkYx0He90W-xb-48">
          <mxGeometry relative="1" as="geometry">
            <mxPoint x="584" y="-80" as="targetPoint" />
          </mxGeometry>
        </mxCell>
        <mxCell id="wtyQRGefkYx0He90W-xb-42" value="maska != 0" style="rhombus;whiteSpace=wrap;html=1;rounded=1;arcSize=14;strokeWidth=2;" vertex="1" parent="WIyWlLk6GJQsqaUBKTNV-1">
          <mxGeometry x="544" y="-200" width="80" height="80" as="geometry" />
        </mxCell>
        <mxCell id="wtyQRGefkYx0He90W-xb-45" value="tak" style="text;html=1;align=center;verticalAlign=middle;resizable=0;points=[];autosize=1;strokeColor=none;fillColor=none;" vertex="1" parent="WIyWlLk6GJQsqaUBKTNV-1">
          <mxGeometry x="660" y="-202" width="40" height="30" as="geometry" />
        </mxCell>
        <mxCell id="wtyQRGefkYx0He90W-xb-47" value="nie" style="text;html=1;align=center;verticalAlign=middle;resizable=0;points=[];autosize=1;strokeColor=none;fillColor=none;" vertex="1" parent="WIyWlLk6GJQsqaUBKTNV-1">
          <mxGeometry x="610" y="-120" width="40" height="30" as="geometry" />
        </mxCell>
        <mxCell id="wtyQRGefkYx0He90W-xb-48" value="zwróć wynik" style="shape=parallelogram;html=1;strokeWidth=2;perimeter=parallelogramPerimeter;whiteSpace=wrap;rounded=1;arcSize=12;size=0.23;" vertex="1" parent="WIyWlLk6GJQsqaUBKTNV-1">
          <mxGeometry x="524" y="-80" width="100" height="60" as="geometry" />
        </mxCell>
      </root>
    </mxGraphModel>
  </diagram>
</mxfile>
